<svg data-v-0dd9719b="" version="1.0" xmlns="http://www.w3.org/2000/svg" xmlns:xlink="http://www.w3.org/1999/xlink" width="100%" height="100%" viewBox="0 0 340.000000 250.000000" preserveAspectRatio="xMidYMid meet" color-interpolation-filters="sRGB" style="margin: auto;"> <rect data-v-0dd9719b="" x="0" y="0" width="100%" height="100%" fill="#fff" fill-opacity="1" class="background"></rect> <rect data-v-0dd9719b="" x="0" y="0" width="100%" height="100%" fill="url(#watermark)" fill-opacity="1" class="watermarklayer"></rect> <g data-v-0dd9719b="" fill="#333" class="icon-text-wrapper icon-svg-group iconsvg" transform="translate(48.334999084472656,95)"><g class="iconsvg-imagesvg" transform="translate(0,0)"><g><rect fill="#333" fill-opacity="0" stroke-width="2" x="0" y="0" width="60" height="60" class="image-rect"></rect> <svg x="0" y="0" width="60" height="60" filtersec="colorsb6835192118" class="image-svg-svg primary" style="overflow: visible;"><svg xmlns="http://www.w3.org/2000/svg" viewBox="0 0 91.08000183105469 91.08000183105469"><g fill-rule="evenodd"><path d="M17.66 0A57.44 57.44 0 0 1 40 45.54a57.42 57.42 0 0 1-22.34 45.54L9.8 83.22A46.44 46.44 0 0 0 29 45.54 46.45 46.45 0 0 0 9.8 7.86z" fill="#6db5a1"></path><path d="M0 73.42a57.52 57.52 0 0 1 91.08 0l-7.86 7.86a46.53 46.53 0 0 0-75.36 0z" fill="#1a77bd"></path><path d="M73.42 91.08a57.52 57.52 0 0 1 0-91.08l7.86 7.86a46.53 46.53 0 0 0 0 75.36z" fill="#f15546"></path><path d="M91.08 17.66A57.42 57.42 0 0 1 45.54 40 57.44 57.44 0 0 1 0 17.66L7.86 9.8A46.45 46.45 0 0 0 45.54 29 46.44 46.44 0 0 0 83.22 9.8zM9.82 83.24a57.5 57.5 0 0 1 71.44 0l-7.84 7.84a46.56 46.56 0 0 0-55.76 0z" fill="#c3913a"></path><path d="M83.24 81.26a57.5 57.5 0 0 1 0-71.44l7.84 7.84a46.56 46.56 0 0 0 0 55.76z" fill="#6db5a1"></path><path d="M9.82 7.84a57.23 57.23 0 0 0 35.72 12.44A57.23 57.23 0 0 0 81.26 7.84L73.42 0a46.35 46.35 0 0 1-27.88 9.28A46.35 46.35 0 0 1 17.66 0z" fill="#1a77bd"></path><path d="M7.84 81.26a57.23 57.23 0 0 0 12.44-35.72A57.23 57.23 0 0 0 7.84 9.82L0 17.66a46.35 46.35 0 0 1 9.28 27.88A46.35 46.35 0 0 1 0 73.42z" fill="#f15546"></path></g></svg></svg> <!----></g></g> <g transform="translate(67,13.704999923706055)"><g data-gra="path-name" fill-rule="" class="tp-name iconsvg-namesvg"><g transform="scale(1)"><g><path d="M22.6 0L3.2 0 3.2-29.61 11.2-29.61 11.2-6.46 22.6-6.46 22.6 0ZM49.2 0L43.22 0 42.23-2.86 41.76-2.86Q40.77-1.28 39-0.44 37.23 0.41 34.84 0.41L34.84 0.41Q31.05 0.41 28.94-1.79 26.84-3.99 26.84-8L26.84-8 26.84-22.95 34.76-22.95 34.76-10.41Q34.76-8.16 35.39-7.01 36.03-5.85 37.49-5.85L37.49-5.85Q39.54-5.85 40.41-7.46 41.28-9.07 41.28-12.9L41.28-12.9 41.28-22.95 49.2-22.95 49.2 0ZM90.76 0L82.84 0 82.84-12.48Q82.84-14.81 82.2-15.97 81.56-17.14 80.19-17.14L80.19-17.14Q78.36-17.14 77.51-15.58 76.66-14.02 76.66-10.69L76.66-10.69 76.66 0 68.72 0 68.72-12.48Q68.72-14.81 68.12-15.97 67.51-17.14 66.15-17.14L66.15-17.14Q64.29-17.14 63.44-15.47 62.59-13.81 62.59-10.05L62.59-10.05 62.59 0 54.67 0 54.67-22.95 60.64-22.95 61.63-20.11 62.1-20.11Q63.01-21.69 64.74-22.52 66.47-23.35 68.68-23.35L68.68-23.35Q73.64-23.35 75.65-20.34L75.65-20.34 76.28-20.34Q77.25-21.75 78.98-22.55 80.71-23.35 82.8-23.35L82.8-23.35Q86.87-23.35 88.82-21.27 90.76-19.18 90.76-14.93L90.76-14.93 90.76 0ZM104.11-22.95L104.11 0 96.19 0 96.19-22.95 104.11-22.95ZM95.99-28.66L95.99-28.66Q95.99-30.44 96.98-31.31 97.97-32.18 100.18-32.18L100.18-32.18Q102.39-32.18 103.4-31.29 104.41-30.4 104.41-28.66L104.41-28.66Q104.41-25.18 100.18-25.18L100.18-25.18Q95.99-25.18 95.99-28.66ZM132.04 0L124.12 0 124.12-12.52Q124.12-14.81 123.46-15.97 122.8-17.14 121.34-17.14L121.34-17.14Q119.34-17.14 118.45-15.54 117.56-13.93 117.56-10.05L117.56-10.05 117.56 0 109.64 0 109.64-22.95 115.61-22.95 116.6-20.11 117.07-20.11Q118.08-21.73 119.88-22.54 121.67-23.35 124-23.35L124-23.35Q127.8-23.35 129.92-21.15 132.04-18.94 132.04-14.93L132.04-14.93 132.04 0ZM157.88 0L152.39 0 150.87-3.04 150.71-3.04Q149.11-1.05 147.45-0.32 145.79 0.41 143.16 0.41L143.16 0.41Q139.92 0.41 138.05-1.54 136.19-3.48 136.19-7.01L136.19-7.01Q136.19-10.67 138.74-12.47 141.29-14.26 146.13-14.48L146.13-14.48 149.96-14.6 149.96-14.93Q149.96-17.76 147.17-17.76L147.17-17.76Q144.66-17.76 140.79-16.06L140.79-16.06 138.5-21.29Q142.51-23.35 148.63-23.35L148.63-23.35Q153.04-23.35 155.46-21.17 157.88-18.98 157.88-15.05L157.88-15.05 157.88 0ZM146.52-5.19L146.52-5.19Q147.96-5.19 148.98-6.1 150-7.01 150-8.47L150-8.47 150-10.25 148.18-10.17Q144.27-10.03 144.27-7.29L144.27-7.29Q144.27-5.19 146.52-5.19ZM177.12-23.35L177.12-23.35Q178.16-23.35 179.09-23.19L179.09-23.19 179.53-23.11 178.83-15.64Q177.85-15.88 176.13-15.88L176.13-15.88Q173.54-15.88 172.36-14.69 171.19-13.51 171.19-11.28L171.19-11.28 171.19 0 163.27 0 163.27-22.95 169.16-22.95 170.4-19.28 170.78-19.28Q171.78-21.1 173.55-22.23 175.32-23.35 177.12-23.35Z" transform="translate(-3.200000047683716, 32.18000030517578)"></path></g> <!----> <!----> <!----> <!----> <!----> <!----> <!----></g></g> <!----></g></g><defs v-gra="od"></defs></svg>